/vscmnt/brussel_pixiu_data/_data_brussel/112/vsc11236/PredSimResults/SUBJ11opt3D/expIG/worker_11.mot
version=1
nRows=4
nColumns=50
inDegrees=yes
endheader
                time	         pelvis_tilt	         pelvis_list	     pelvis_rotation	           pelvis_tx	           pelvis_ty	           pelvis_tz	       hip_flexion_r	     hip_adduction_r	      hip_rotation_r	        knee_angle_r	       ankle_angle_r	         mtp_angle_r	       hip_flexion_l	     hip_adduction_l	      hip_rotation_l	        knee_angle_l	       ankle_angle_l	         mtp_angle_l	    lumbar_extension	      lumbar_bending	     lumbar_rotation	 ercspn_r/activation	 intobl_r/activation	 extobl_r/activation	    abd_r/activation	    add_r/activation	hamstrings_r/activation	bifemsh_r/activation	glut_max_r/activation	iliopsoas_r/activation	rect_fem_r/activation	  vasti_r/activation	gastroc_r/activation	 soleus_r/activation	tib_ant_r/activation	 ercspn_l/activation	 intobl_l/activation	 extobl_l/activation	    abd_l/activation	    add_l/activation	hamstrings_l/activation	bifemsh_l/activation	glut_max_l/activation	iliopsoas_l/activation	rect_fem_l/activation	  vasti_l/activation	gastroc_l/activation	 soleus_l/activation	tib_ant_l/activation	
          1.07335811	         -7.38573454	         -3.77267643	          8.56394406	          1.71737298	          0.92355806	         -0.00676357	         37.38962646	         -0.32915889	         -7.84109636	         -9.23544948	          4.03163993	          0.30810757	        -14.51321669	         -4.92137109	          1.78841693	        -11.32346906	          7.14904450	         39.30421054	        -12.27976159	          2.45386040	         -2.51020902	          0.07740427	          0.22655384	          0.01721687	          0.00999999	          0.29473339	          0.08829393	          0.25725591	          0.10338154	          0.13918418	          0.02449374	          0.00999999	          0.01638411	          0.00999999	          0.59990494	          0.02696709	          0.00999999	          0.01000000	          0.02684392	          0.07575668	          0.02277045	          0.31792155	          0.01931511	          0.29231760	          0.01000044	          0.01000000	          0.18934258	          0.29581881	          0.01389787	
          1.08409170	         -7.36558941	         -3.91200262	          8.70462862	          1.73903202	          0.92114919	         -0.00624536	         37.56095895	         -0.13650174	         -7.94909733	        -11.49662934	          3.23175228	          0.29079740	        -15.33218105	         -5.27192570	          1.42453903	        -12.01019641	          5.66793939	         41.34918066	        -11.76104599	          2.84320570	         -2.77143631	          0.06565843	          0.19217507	          0.01460427	          0.00999999	          0.36411278	          0.07844771	          0.21821820	          0.28288557	          0.11806345	          0.02077690	          0.00999999	          0.01389788	          0.01178892	          0.67022764	          0.07132218	          0.00999999	          0.01000004	          0.02277045	          0.19699229	          0.01931512	          0.26967827	          0.01638411	          0.46271631	          0.01000000	          0.01000001	          0.16061048	          0.25133272	          0.01178892	
          1.09482528	         -7.32533139	         -4.01403765	          8.78961529	          1.76083231	          0.91894782	         -0.00567527	         37.59979906	          0.01347372	         -8.01706700	        -13.83585359	          2.72828355	          0.22150945	        -15.85067343	         -5.56178535	          1.02373153	        -13.28314903	          4.18591902	         43.23278691	        -11.25094155	          3.19347903	         -3.00348890	          0.07265531	          0.16301315	          0.01238812	          0.15847624	          0.43205645	          0.06654354	          0.18510433	          0.31476484	          0.10014772	          0.01762408	          0.00999999	          0.01178892	          0.00999999	          0.77327843	          0.09622600	          0.00999999	          0.00999999	          0.01931511	          0.16709939	          0.01638411	          0.22875557	          0.01389788	          0.62198166	          0.01000000	          0.00999999	          0.13623839	          0.21319383	          0.00999999	
          1.10555886	         -7.26666801	         -4.07907297	          8.82021272	          1.78241657	          0.91718509	         -0.00501548	         37.60219545	          0.14965315	         -8.09417724	        -16.12212840	          2.16411636	          0.17422514	        -15.91067601	         -5.79797372	          0.62998401	        -15.36823503	          2.72698650	         44.83481767	        -10.79441895	          3.50512453	         -3.20056097	          0.10629507	          0.13827646	          0.01050827	          0.19679656	          0.48520137	          0.05644579	          0.15701537	          0.36277803	          0.08495065	          0.01494969	          0.01000004	          0.00999999	          0.00999999	          0.83187782	          0.10245967	          0.00999999	          0.00999999	          0.01638411	          0.19879842	          0.01389788	          0.19404270	          0.01178892	          0.68241846	          0.00999999	          0.00999999	          0.11556467	          0.18084239	          0.00999999	
